<mxfile host="app.diagrams.net" modified="2020-11-24T15:20:54.045Z" agent="5.0 (Windows NT 10.0; Win64; x64) AppleWebKit/537.36 (KHTML, like Gecko) Chrome/86.0.4240.198 Safari/537.36" etag="J-vcDBaak4u28on9MtlJ" version="13.10.2" type="github">
  <diagram id="ajPe46dBiF2JfVOMMVat" name="Page-1">
    <mxGraphModel dx="1185" dy="643" grid="1" gridSize="10" guides="1" tooltips="1" connect="1" arrows="1" fold="1" page="1" pageScale="1" pageWidth="827" pageHeight="1169" math="0" shadow="0">
      <root>
        <mxCell id="0" />
        <mxCell id="1" parent="0" />
        <mxCell id="CehHZMc9VXragpEMrMZA-1" value="User" style="shape=table;startSize=30;container=1;collapsible=1;childLayout=tableLayout;fixedRows=1;rowLines=0;fontStyle=1;align=center;resizeLast=1;" vertex="1" parent="1">
          <mxGeometry x="20" y="20" width="180" height="240" as="geometry" />
        </mxCell>
        <mxCell id="CehHZMc9VXragpEMrMZA-2" value="" style="shape=partialRectangle;collapsible=0;dropTarget=0;pointerEvents=0;fillColor=none;top=0;left=0;bottom=1;right=0;points=[[0,0.5],[1,0.5]];portConstraint=eastwest;" vertex="1" parent="CehHZMc9VXragpEMrMZA-1">
          <mxGeometry y="30" width="180" height="30" as="geometry" />
        </mxCell>
        <mxCell id="CehHZMc9VXragpEMrMZA-3" value="PK" style="shape=partialRectangle;connectable=0;fillColor=none;top=0;left=0;bottom=0;right=0;fontStyle=1;overflow=hidden;" vertex="1" parent="CehHZMc9VXragpEMrMZA-2">
          <mxGeometry width="30" height="30" as="geometry" />
        </mxCell>
        <mxCell id="CehHZMc9VXragpEMrMZA-4" value="id : int : 必" style="shape=partialRectangle;connectable=0;fillColor=none;top=0;left=0;bottom=0;right=0;align=left;spacingLeft=6;fontStyle=5;overflow=hidden;" vertex="1" parent="CehHZMc9VXragpEMrMZA-2">
          <mxGeometry x="30" width="150" height="30" as="geometry" />
        </mxCell>
        <mxCell id="CehHZMc9VXragpEMrMZA-5" value="" style="shape=partialRectangle;collapsible=0;dropTarget=0;pointerEvents=0;fillColor=none;top=0;left=0;bottom=0;right=0;points=[[0,0.5],[1,0.5]];portConstraint=eastwest;" vertex="1" parent="CehHZMc9VXragpEMrMZA-1">
          <mxGeometry y="60" width="180" height="30" as="geometry" />
        </mxCell>
        <mxCell id="CehHZMc9VXragpEMrMZA-6" value="" style="shape=partialRectangle;connectable=0;fillColor=none;top=0;left=0;bottom=0;right=0;editable=1;overflow=hidden;" vertex="1" parent="CehHZMc9VXragpEMrMZA-5">
          <mxGeometry width="30" height="30" as="geometry" />
        </mxCell>
        <mxCell id="CehHZMc9VXragpEMrMZA-7" value="name : string : 必" style="shape=partialRectangle;connectable=0;fillColor=none;top=0;left=0;bottom=0;right=0;align=left;spacingLeft=6;overflow=hidden;" vertex="1" parent="CehHZMc9VXragpEMrMZA-5">
          <mxGeometry x="30" width="150" height="30" as="geometry" />
        </mxCell>
        <mxCell id="CehHZMc9VXragpEMrMZA-8" value="" style="shape=partialRectangle;collapsible=0;dropTarget=0;pointerEvents=0;fillColor=none;top=0;left=0;bottom=0;right=0;points=[[0,0.5],[1,0.5]];portConstraint=eastwest;" vertex="1" parent="CehHZMc9VXragpEMrMZA-1">
          <mxGeometry y="90" width="180" height="30" as="geometry" />
        </mxCell>
        <mxCell id="CehHZMc9VXragpEMrMZA-9" value="" style="shape=partialRectangle;connectable=0;fillColor=none;top=0;left=0;bottom=0;right=0;editable=1;overflow=hidden;" vertex="1" parent="CehHZMc9VXragpEMrMZA-8">
          <mxGeometry width="30" height="30" as="geometry" />
        </mxCell>
        <mxCell id="CehHZMc9VXragpEMrMZA-10" value="email : string : 必" style="shape=partialRectangle;connectable=0;fillColor=none;top=0;left=0;bottom=0;right=0;align=left;spacingLeft=6;overflow=hidden;" vertex="1" parent="CehHZMc9VXragpEMrMZA-8">
          <mxGeometry x="30" width="150" height="30" as="geometry" />
        </mxCell>
        <mxCell id="CehHZMc9VXragpEMrMZA-11" value="" style="shape=partialRectangle;collapsible=0;dropTarget=0;pointerEvents=0;fillColor=none;top=0;left=0;bottom=0;right=0;points=[[0,0.5],[1,0.5]];portConstraint=eastwest;" vertex="1" parent="CehHZMc9VXragpEMrMZA-1">
          <mxGeometry y="120" width="180" height="30" as="geometry" />
        </mxCell>
        <mxCell id="CehHZMc9VXragpEMrMZA-12" value="" style="shape=partialRectangle;connectable=0;fillColor=none;top=0;left=0;bottom=0;right=0;editable=1;overflow=hidden;" vertex="1" parent="CehHZMc9VXragpEMrMZA-11">
          <mxGeometry width="30" height="30" as="geometry" />
        </mxCell>
        <mxCell id="CehHZMc9VXragpEMrMZA-13" value="password : string : 必" style="shape=partialRectangle;connectable=0;fillColor=none;top=0;left=0;bottom=0;right=0;align=left;spacingLeft=6;overflow=hidden;" vertex="1" parent="CehHZMc9VXragpEMrMZA-11">
          <mxGeometry x="30" width="150" height="30" as="geometry" />
        </mxCell>
        <mxCell id="CehHZMc9VXragpEMrMZA-439" style="shape=partialRectangle;collapsible=0;dropTarget=0;pointerEvents=0;fillColor=none;top=0;left=0;bottom=0;right=0;points=[[0,0.5],[1,0.5]];portConstraint=eastwest;" vertex="1" parent="CehHZMc9VXragpEMrMZA-1">
          <mxGeometry y="150" width="180" height="30" as="geometry" />
        </mxCell>
        <mxCell id="CehHZMc9VXragpEMrMZA-440" style="shape=partialRectangle;connectable=0;fillColor=none;top=0;left=0;bottom=0;right=0;editable=1;overflow=hidden;" vertex="1" parent="CehHZMc9VXragpEMrMZA-439">
          <mxGeometry width="30" height="30" as="geometry" />
        </mxCell>
        <mxCell id="CehHZMc9VXragpEMrMZA-441" value="kind : string : 必" style="shape=partialRectangle;connectable=0;fillColor=none;top=0;left=0;bottom=0;right=0;align=left;spacingLeft=6;overflow=hidden;" vertex="1" parent="CehHZMc9VXragpEMrMZA-439">
          <mxGeometry x="30" width="150" height="30" as="geometry" />
        </mxCell>
        <mxCell id="CehHZMc9VXragpEMrMZA-442" style="shape=partialRectangle;collapsible=0;dropTarget=0;pointerEvents=0;fillColor=none;top=0;left=0;bottom=0;right=0;points=[[0,0.5],[1,0.5]];portConstraint=eastwest;" vertex="1" parent="CehHZMc9VXragpEMrMZA-1">
          <mxGeometry y="180" width="180" height="30" as="geometry" />
        </mxCell>
        <mxCell id="CehHZMc9VXragpEMrMZA-443" style="shape=partialRectangle;connectable=0;fillColor=none;top=0;left=0;bottom=0;right=0;editable=1;overflow=hidden;" vertex="1" parent="CehHZMc9VXragpEMrMZA-442">
          <mxGeometry width="30" height="30" as="geometry" />
        </mxCell>
        <mxCell id="CehHZMc9VXragpEMrMZA-444" value="created_at : datetime : 必" style="shape=partialRectangle;connectable=0;fillColor=none;top=0;left=0;bottom=0;right=0;align=left;spacingLeft=6;overflow=hidden;" vertex="1" parent="CehHZMc9VXragpEMrMZA-442">
          <mxGeometry x="30" width="150" height="30" as="geometry" />
        </mxCell>
        <mxCell id="CehHZMc9VXragpEMrMZA-33" style="shape=partialRectangle;collapsible=0;dropTarget=0;pointerEvents=0;fillColor=none;top=0;left=0;bottom=0;right=0;points=[[0,0.5],[1,0.5]];portConstraint=eastwest;" vertex="1" parent="CehHZMc9VXragpEMrMZA-1">
          <mxGeometry y="210" width="180" height="30" as="geometry" />
        </mxCell>
        <mxCell id="CehHZMc9VXragpEMrMZA-34" style="shape=partialRectangle;connectable=0;fillColor=none;top=0;left=0;bottom=0;right=0;editable=1;overflow=hidden;" vertex="1" parent="CehHZMc9VXragpEMrMZA-33">
          <mxGeometry width="30" height="30" as="geometry" />
        </mxCell>
        <mxCell id="CehHZMc9VXragpEMrMZA-35" value="updated_at : datetime : 必" style="shape=partialRectangle;connectable=0;fillColor=none;top=0;left=0;bottom=0;right=0;align=left;spacingLeft=6;overflow=hidden;" vertex="1" parent="CehHZMc9VXragpEMrMZA-33">
          <mxGeometry x="30" width="150" height="30" as="geometry" />
        </mxCell>
        <mxCell id="CehHZMc9VXragpEMrMZA-62" value="Condition" style="shape=table;startSize=30;container=1;collapsible=1;childLayout=tableLayout;fixedRows=1;rowLines=0;fontStyle=1;align=center;resizeLast=1;" vertex="1" parent="1">
          <mxGeometry x="271" y="530" width="180" height="330" as="geometry" />
        </mxCell>
        <mxCell id="CehHZMc9VXragpEMrMZA-63" value="" style="shape=partialRectangle;collapsible=0;dropTarget=0;pointerEvents=0;fillColor=none;top=0;left=0;bottom=1;right=0;points=[[0,0.5],[1,0.5]];portConstraint=eastwest;" vertex="1" parent="CehHZMc9VXragpEMrMZA-62">
          <mxGeometry y="30" width="180" height="30" as="geometry" />
        </mxCell>
        <mxCell id="CehHZMc9VXragpEMrMZA-64" value="PK" style="shape=partialRectangle;connectable=0;fillColor=none;top=0;left=0;bottom=0;right=0;fontStyle=1;overflow=hidden;" vertex="1" parent="CehHZMc9VXragpEMrMZA-63">
          <mxGeometry width="30" height="30" as="geometry" />
        </mxCell>
        <mxCell id="CehHZMc9VXragpEMrMZA-65" value="id:int:必" style="shape=partialRectangle;connectable=0;fillColor=none;top=0;left=0;bottom=0;right=0;align=left;spacingLeft=6;fontStyle=5;overflow=hidden;" vertex="1" parent="CehHZMc9VXragpEMrMZA-63">
          <mxGeometry x="30" width="150" height="30" as="geometry" />
        </mxCell>
        <mxCell id="CehHZMc9VXragpEMrMZA-453" value="" style="shape=partialRectangle;collapsible=0;dropTarget=0;pointerEvents=0;fillColor=none;top=0;left=0;bottom=0;right=0;points=[[0,0.5],[1,0.5]];portConstraint=eastwest;" vertex="1" parent="CehHZMc9VXragpEMrMZA-62">
          <mxGeometry y="60" width="180" height="30" as="geometry" />
        </mxCell>
        <mxCell id="CehHZMc9VXragpEMrMZA-454" value="FK" style="shape=partialRectangle;connectable=0;fillColor=none;top=0;left=0;bottom=0;right=0;editable=1;overflow=hidden;" vertex="1" parent="CehHZMc9VXragpEMrMZA-453">
          <mxGeometry width="30" height="30" as="geometry" />
        </mxCell>
        <mxCell id="CehHZMc9VXragpEMrMZA-455" value="user_id : int : 必" style="shape=partialRectangle;connectable=0;fillColor=none;top=0;left=0;bottom=0;right=0;align=left;spacingLeft=6;overflow=hidden;" vertex="1" parent="CehHZMc9VXragpEMrMZA-453">
          <mxGeometry x="30" width="150" height="30" as="geometry" />
        </mxCell>
        <mxCell id="CehHZMc9VXragpEMrMZA-69" value="" style="shape=partialRectangle;collapsible=0;dropTarget=0;pointerEvents=0;fillColor=none;top=0;left=0;bottom=0;right=0;points=[[0,0.5],[1,0.5]];portConstraint=eastwest;" vertex="1" parent="CehHZMc9VXragpEMrMZA-62">
          <mxGeometry y="90" width="180" height="30" as="geometry" />
        </mxCell>
        <mxCell id="CehHZMc9VXragpEMrMZA-70" value="" style="shape=partialRectangle;connectable=0;fillColor=none;top=0;left=0;bottom=0;right=0;editable=1;overflow=hidden;" vertex="1" parent="CehHZMc9VXragpEMrMZA-69">
          <mxGeometry width="30" height="30" as="geometry" />
        </mxCell>
        <mxCell id="CehHZMc9VXragpEMrMZA-71" value="camera : string : 必" style="shape=partialRectangle;connectable=0;fillColor=none;top=0;left=0;bottom=0;right=0;align=left;spacingLeft=6;overflow=hidden;" vertex="1" parent="CehHZMc9VXragpEMrMZA-69">
          <mxGeometry x="30" width="150" height="30" as="geometry" />
        </mxCell>
        <mxCell id="CehHZMc9VXragpEMrMZA-72" value="" style="shape=partialRectangle;collapsible=0;dropTarget=0;pointerEvents=0;fillColor=none;top=0;left=0;bottom=0;right=0;points=[[0,0.5],[1,0.5]];portConstraint=eastwest;" vertex="1" parent="CehHZMc9VXragpEMrMZA-62">
          <mxGeometry y="120" width="180" height="30" as="geometry" />
        </mxCell>
        <mxCell id="CehHZMc9VXragpEMrMZA-73" value="" style="shape=partialRectangle;connectable=0;fillColor=none;top=0;left=0;bottom=0;right=0;editable=1;overflow=hidden;" vertex="1" parent="CehHZMc9VXragpEMrMZA-72">
          <mxGeometry width="30" height="30" as="geometry" />
        </mxCell>
        <mxCell id="CehHZMc9VXragpEMrMZA-74" value="lens : string" style="shape=partialRectangle;connectable=0;fillColor=none;top=0;left=0;bottom=0;right=0;align=left;spacingLeft=6;overflow=hidden;" vertex="1" parent="CehHZMc9VXragpEMrMZA-72">
          <mxGeometry x="30" width="150" height="30" as="geometry" />
        </mxCell>
        <mxCell id="CehHZMc9VXragpEMrMZA-205" value="" style="shape=partialRectangle;collapsible=0;dropTarget=0;pointerEvents=0;fillColor=none;top=0;left=0;bottom=0;right=0;points=[[0,0.5],[1,0.5]];portConstraint=eastwest;" vertex="1" parent="CehHZMc9VXragpEMrMZA-62">
          <mxGeometry y="150" width="180" height="30" as="geometry" />
        </mxCell>
        <mxCell id="CehHZMc9VXragpEMrMZA-206" value="" style="shape=partialRectangle;connectable=0;fillColor=none;top=0;left=0;bottom=0;right=0;editable=1;overflow=hidden;" vertex="1" parent="CehHZMc9VXragpEMrMZA-205">
          <mxGeometry width="30" height="30" as="geometry" />
        </mxCell>
        <mxCell id="CehHZMc9VXragpEMrMZA-207" value="telescope : string" style="shape=partialRectangle;connectable=0;fillColor=none;top=0;left=0;bottom=0;right=0;align=left;spacingLeft=6;overflow=hidden;" vertex="1" parent="CehHZMc9VXragpEMrMZA-205">
          <mxGeometry x="30" width="150" height="30" as="geometry" />
        </mxCell>
        <mxCell id="CehHZMc9VXragpEMrMZA-75" value="" style="shape=partialRectangle;collapsible=0;dropTarget=0;pointerEvents=0;fillColor=none;top=0;left=0;bottom=0;right=0;points=[[0,0.5],[1,0.5]];portConstraint=eastwest;" vertex="1" parent="CehHZMc9VXragpEMrMZA-62">
          <mxGeometry y="180" width="180" height="30" as="geometry" />
        </mxCell>
        <mxCell id="CehHZMc9VXragpEMrMZA-76" value="" style="shape=partialRectangle;connectable=0;fillColor=none;top=0;left=0;bottom=0;right=0;editable=1;overflow=hidden;" vertex="1" parent="CehHZMc9VXragpEMrMZA-75">
          <mxGeometry width="30" height="30" as="geometry" />
        </mxCell>
        <mxCell id="CehHZMc9VXragpEMrMZA-77" value="filter : string" style="shape=partialRectangle;connectable=0;fillColor=none;top=0;left=0;bottom=0;right=0;align=left;spacingLeft=6;overflow=hidden;" vertex="1" parent="CehHZMc9VXragpEMrMZA-75">
          <mxGeometry x="30" width="150" height="30" as="geometry" />
        </mxCell>
        <mxCell id="CehHZMc9VXragpEMrMZA-78" style="shape=partialRectangle;collapsible=0;dropTarget=0;pointerEvents=0;fillColor=none;top=0;left=0;bottom=0;right=0;points=[[0,0.5],[1,0.5]];portConstraint=eastwest;" vertex="1" parent="CehHZMc9VXragpEMrMZA-62">
          <mxGeometry y="210" width="180" height="30" as="geometry" />
        </mxCell>
        <mxCell id="CehHZMc9VXragpEMrMZA-79" style="shape=partialRectangle;connectable=0;fillColor=none;top=0;left=0;bottom=0;right=0;editable=1;overflow=hidden;" vertex="1" parent="CehHZMc9VXragpEMrMZA-78">
          <mxGeometry width="30" height="30" as="geometry" />
        </mxCell>
        <mxCell id="CehHZMc9VXragpEMrMZA-80" value="mount : string" style="shape=partialRectangle;connectable=0;fillColor=none;top=0;left=0;bottom=0;right=0;align=left;spacingLeft=6;overflow=hidden;" vertex="1" parent="CehHZMc9VXragpEMrMZA-78">
          <mxGeometry x="30" width="150" height="30" as="geometry" />
        </mxCell>
        <mxCell id="CehHZMc9VXragpEMrMZA-456" style="shape=partialRectangle;collapsible=0;dropTarget=0;pointerEvents=0;fillColor=none;top=0;left=0;bottom=0;right=0;points=[[0,0.5],[1,0.5]];portConstraint=eastwest;" vertex="1" parent="CehHZMc9VXragpEMrMZA-62">
          <mxGeometry y="240" width="180" height="30" as="geometry" />
        </mxCell>
        <mxCell id="CehHZMc9VXragpEMrMZA-457" style="shape=partialRectangle;connectable=0;fillColor=none;top=0;left=0;bottom=0;right=0;editable=1;overflow=hidden;" vertex="1" parent="CehHZMc9VXragpEMrMZA-456">
          <mxGeometry width="30" height="30" as="geometry" />
        </mxCell>
        <mxCell id="CehHZMc9VXragpEMrMZA-458" value="tripod : string" style="shape=partialRectangle;connectable=0;fillColor=none;top=0;left=0;bottom=0;right=0;align=left;spacingLeft=6;overflow=hidden;" vertex="1" parent="CehHZMc9VXragpEMrMZA-456">
          <mxGeometry x="30" width="150" height="30" as="geometry" />
        </mxCell>
        <mxCell id="CehHZMc9VXragpEMrMZA-459" style="shape=partialRectangle;collapsible=0;dropTarget=0;pointerEvents=0;fillColor=none;top=0;left=0;bottom=0;right=0;points=[[0,0.5],[1,0.5]];portConstraint=eastwest;" vertex="1" parent="CehHZMc9VXragpEMrMZA-62">
          <mxGeometry y="270" width="180" height="30" as="geometry" />
        </mxCell>
        <mxCell id="CehHZMc9VXragpEMrMZA-460" style="shape=partialRectangle;connectable=0;fillColor=none;top=0;left=0;bottom=0;right=0;editable=1;overflow=hidden;" vertex="1" parent="CehHZMc9VXragpEMrMZA-459">
          <mxGeometry width="30" height="30" as="geometry" />
        </mxCell>
        <mxCell id="CehHZMc9VXragpEMrMZA-461" value="created_at : datetime : 必" style="shape=partialRectangle;connectable=0;fillColor=none;top=0;left=0;bottom=0;right=0;align=left;spacingLeft=6;overflow=hidden;" vertex="1" parent="CehHZMc9VXragpEMrMZA-459">
          <mxGeometry x="30" width="150" height="30" as="geometry" />
        </mxCell>
        <mxCell id="CehHZMc9VXragpEMrMZA-202" style="shape=partialRectangle;collapsible=0;dropTarget=0;pointerEvents=0;fillColor=none;top=0;left=0;bottom=0;right=0;points=[[0,0.5],[1,0.5]];portConstraint=eastwest;" vertex="1" parent="CehHZMc9VXragpEMrMZA-62">
          <mxGeometry y="300" width="180" height="30" as="geometry" />
        </mxCell>
        <mxCell id="CehHZMc9VXragpEMrMZA-203" style="shape=partialRectangle;connectable=0;fillColor=none;top=0;left=0;bottom=0;right=0;editable=1;overflow=hidden;" vertex="1" parent="CehHZMc9VXragpEMrMZA-202">
          <mxGeometry width="30" height="30" as="geometry" />
        </mxCell>
        <mxCell id="CehHZMc9VXragpEMrMZA-204" value="updated_at : datetime : 必" style="shape=partialRectangle;connectable=0;fillColor=none;top=0;left=0;bottom=0;right=0;align=left;spacingLeft=6;overflow=hidden;" vertex="1" parent="CehHZMc9VXragpEMrMZA-202">
          <mxGeometry x="30" width="150" height="30" as="geometry" />
        </mxCell>
        <mxCell id="CehHZMc9VXragpEMrMZA-245" value="Event" style="shape=table;startSize=30;container=1;collapsible=1;childLayout=tableLayout;fixedRows=1;rowLines=0;fontStyle=1;align=center;resizeLast=1;" vertex="1" parent="1">
          <mxGeometry x="791" y="450" width="180" height="450" as="geometry" />
        </mxCell>
        <mxCell id="CehHZMc9VXragpEMrMZA-246" value="" style="shape=partialRectangle;collapsible=0;dropTarget=0;pointerEvents=0;fillColor=none;top=0;left=0;bottom=1;right=0;points=[[0,0.5],[1,0.5]];portConstraint=eastwest;" vertex="1" parent="CehHZMc9VXragpEMrMZA-245">
          <mxGeometry y="30" width="180" height="30" as="geometry" />
        </mxCell>
        <mxCell id="CehHZMc9VXragpEMrMZA-247" value="PK" style="shape=partialRectangle;connectable=0;fillColor=none;top=0;left=0;bottom=0;right=0;fontStyle=1;overflow=hidden;" vertex="1" parent="CehHZMc9VXragpEMrMZA-246">
          <mxGeometry width="30" height="30" as="geometry" />
        </mxCell>
        <mxCell id="CehHZMc9VXragpEMrMZA-248" value="id:int:必" style="shape=partialRectangle;connectable=0;fillColor=none;top=0;left=0;bottom=0;right=0;align=left;spacingLeft=6;fontStyle=5;overflow=hidden;" vertex="1" parent="CehHZMc9VXragpEMrMZA-246">
          <mxGeometry x="30" width="150" height="30" as="geometry" />
        </mxCell>
        <mxCell id="CehHZMc9VXragpEMrMZA-529" value="" style="shape=partialRectangle;collapsible=0;dropTarget=0;pointerEvents=0;fillColor=none;top=0;left=0;bottom=0;right=0;points=[[0,0.5],[1,0.5]];portConstraint=eastwest;" vertex="1" parent="CehHZMc9VXragpEMrMZA-245">
          <mxGeometry y="60" width="180" height="30" as="geometry" />
        </mxCell>
        <mxCell id="CehHZMc9VXragpEMrMZA-530" value="FK" style="shape=partialRectangle;connectable=0;fillColor=none;top=0;left=0;bottom=0;right=0;editable=1;overflow=hidden;" vertex="1" parent="CehHZMc9VXragpEMrMZA-529">
          <mxGeometry width="30" height="30" as="geometry" />
        </mxCell>
        <mxCell id="CehHZMc9VXragpEMrMZA-531" value="user_id : int : 必" style="shape=partialRectangle;connectable=0;fillColor=none;top=0;left=0;bottom=0;right=0;align=left;spacingLeft=6;overflow=hidden;" vertex="1" parent="CehHZMc9VXragpEMrMZA-529">
          <mxGeometry x="30" width="150" height="30" as="geometry" />
        </mxCell>
        <mxCell id="CehHZMc9VXragpEMrMZA-252" value="" style="shape=partialRectangle;collapsible=0;dropTarget=0;pointerEvents=0;fillColor=none;top=0;left=0;bottom=0;right=0;points=[[0,0.5],[1,0.5]];portConstraint=eastwest;" vertex="1" parent="CehHZMc9VXragpEMrMZA-245">
          <mxGeometry y="90" width="180" height="30" as="geometry" />
        </mxCell>
        <mxCell id="CehHZMc9VXragpEMrMZA-253" value="" style="shape=partialRectangle;connectable=0;fillColor=none;top=0;left=0;bottom=0;right=0;editable=1;overflow=hidden;" vertex="1" parent="CehHZMc9VXragpEMrMZA-252">
          <mxGeometry width="30" height="30" as="geometry" />
        </mxCell>
        <mxCell id="CehHZMc9VXragpEMrMZA-254" value="title : string : 必" style="shape=partialRectangle;connectable=0;fillColor=none;top=0;left=0;bottom=0;right=0;align=left;spacingLeft=6;overflow=hidden;" vertex="1" parent="CehHZMc9VXragpEMrMZA-252">
          <mxGeometry x="30" width="150" height="30" as="geometry" />
        </mxCell>
        <mxCell id="CehHZMc9VXragpEMrMZA-255" value="" style="shape=partialRectangle;collapsible=0;dropTarget=0;pointerEvents=0;fillColor=none;top=0;left=0;bottom=0;right=0;points=[[0,0.5],[1,0.5]];portConstraint=eastwest;" vertex="1" parent="CehHZMc9VXragpEMrMZA-245">
          <mxGeometry y="120" width="180" height="30" as="geometry" />
        </mxCell>
        <mxCell id="CehHZMc9VXragpEMrMZA-256" value="" style="shape=partialRectangle;connectable=0;fillColor=none;top=0;left=0;bottom=0;right=0;editable=1;overflow=hidden;" vertex="1" parent="CehHZMc9VXragpEMrMZA-255">
          <mxGeometry width="30" height="30" as="geometry" />
        </mxCell>
        <mxCell id="CehHZMc9VXragpEMrMZA-257" value="image : string : 必" style="shape=partialRectangle;connectable=0;fillColor=none;top=0;left=0;bottom=0;right=0;align=left;spacingLeft=6;overflow=hidden;" vertex="1" parent="CehHZMc9VXragpEMrMZA-255">
          <mxGeometry x="30" width="150" height="30" as="geometry" />
        </mxCell>
        <mxCell id="CehHZMc9VXragpEMrMZA-258" value="" style="shape=partialRectangle;collapsible=0;dropTarget=0;pointerEvents=0;fillColor=none;top=0;left=0;bottom=0;right=0;points=[[0,0.5],[1,0.5]];portConstraint=eastwest;" vertex="1" parent="CehHZMc9VXragpEMrMZA-245">
          <mxGeometry y="150" width="180" height="30" as="geometry" />
        </mxCell>
        <mxCell id="CehHZMc9VXragpEMrMZA-259" value="" style="shape=partialRectangle;connectable=0;fillColor=none;top=0;left=0;bottom=0;right=0;editable=1;overflow=hidden;" vertex="1" parent="CehHZMc9VXragpEMrMZA-258">
          <mxGeometry width="30" height="30" as="geometry" />
        </mxCell>
        <mxCell id="CehHZMc9VXragpEMrMZA-260" value="date : datetime : 必" style="shape=partialRectangle;connectable=0;fillColor=none;top=0;left=0;bottom=0;right=0;align=left;spacingLeft=6;overflow=hidden;" vertex="1" parent="CehHZMc9VXragpEMrMZA-258">
          <mxGeometry x="30" width="150" height="30" as="geometry" />
        </mxCell>
        <mxCell id="CehHZMc9VXragpEMrMZA-261" value="" style="shape=partialRectangle;collapsible=0;dropTarget=0;pointerEvents=0;fillColor=none;top=0;left=0;bottom=0;right=0;points=[[0,0.5],[1,0.5]];portConstraint=eastwest;" vertex="1" parent="CehHZMc9VXragpEMrMZA-245">
          <mxGeometry y="180" width="180" height="30" as="geometry" />
        </mxCell>
        <mxCell id="CehHZMc9VXragpEMrMZA-262" value="" style="shape=partialRectangle;connectable=0;fillColor=none;top=0;left=0;bottom=0;right=0;editable=1;overflow=hidden;" vertex="1" parent="CehHZMc9VXragpEMrMZA-261">
          <mxGeometry width="30" height="30" as="geometry" />
        </mxCell>
        <mxCell id="CehHZMc9VXragpEMrMZA-263" value="startTime : datetime : 必" style="shape=partialRectangle;connectable=0;fillColor=none;top=0;left=0;bottom=0;right=0;align=left;spacingLeft=6;overflow=hidden;" vertex="1" parent="CehHZMc9VXragpEMrMZA-261">
          <mxGeometry x="30" width="150" height="30" as="geometry" />
        </mxCell>
        <mxCell id="CehHZMc9VXragpEMrMZA-264" style="shape=partialRectangle;collapsible=0;dropTarget=0;pointerEvents=0;fillColor=none;top=0;left=0;bottom=0;right=0;points=[[0,0.5],[1,0.5]];portConstraint=eastwest;" vertex="1" parent="CehHZMc9VXragpEMrMZA-245">
          <mxGeometry y="210" width="180" height="30" as="geometry" />
        </mxCell>
        <mxCell id="CehHZMc9VXragpEMrMZA-265" style="shape=partialRectangle;connectable=0;fillColor=none;top=0;left=0;bottom=0;right=0;editable=1;overflow=hidden;" vertex="1" parent="CehHZMc9VXragpEMrMZA-264">
          <mxGeometry width="30" height="30" as="geometry" />
        </mxCell>
        <mxCell id="CehHZMc9VXragpEMrMZA-266" value="endTime : datetime : 必" style="shape=partialRectangle;connectable=0;fillColor=none;top=0;left=0;bottom=0;right=0;align=left;spacingLeft=6;overflow=hidden;" vertex="1" parent="CehHZMc9VXragpEMrMZA-264">
          <mxGeometry x="30" width="150" height="30" as="geometry" />
        </mxCell>
        <mxCell id="CehHZMc9VXragpEMrMZA-267" style="shape=partialRectangle;collapsible=0;dropTarget=0;pointerEvents=0;fillColor=none;top=0;left=0;bottom=0;right=0;points=[[0,0.5],[1,0.5]];portConstraint=eastwest;" vertex="1" parent="CehHZMc9VXragpEMrMZA-245">
          <mxGeometry y="240" width="180" height="30" as="geometry" />
        </mxCell>
        <mxCell id="CehHZMc9VXragpEMrMZA-268" style="shape=partialRectangle;connectable=0;fillColor=none;top=0;left=0;bottom=0;right=0;editable=1;overflow=hidden;" vertex="1" parent="CehHZMc9VXragpEMrMZA-267">
          <mxGeometry width="30" height="30" as="geometry" />
        </mxCell>
        <mxCell id="CehHZMc9VXragpEMrMZA-269" value="location : string : 必" style="shape=partialRectangle;connectable=0;fillColor=none;top=0;left=0;bottom=0;right=0;align=left;spacingLeft=6;overflow=hidden;" vertex="1" parent="CehHZMc9VXragpEMrMZA-267">
          <mxGeometry x="30" width="150" height="30" as="geometry" />
        </mxCell>
        <mxCell id="CehHZMc9VXragpEMrMZA-270" style="shape=partialRectangle;collapsible=0;dropTarget=0;pointerEvents=0;fillColor=none;top=0;left=0;bottom=0;right=0;points=[[0,0.5],[1,0.5]];portConstraint=eastwest;" vertex="1" parent="CehHZMc9VXragpEMrMZA-245">
          <mxGeometry y="270" width="180" height="30" as="geometry" />
        </mxCell>
        <mxCell id="CehHZMc9VXragpEMrMZA-271" style="shape=partialRectangle;connectable=0;fillColor=none;top=0;left=0;bottom=0;right=0;editable=1;overflow=hidden;" vertex="1" parent="CehHZMc9VXragpEMrMZA-270">
          <mxGeometry width="30" height="30" as="geometry" />
        </mxCell>
        <mxCell id="CehHZMc9VXragpEMrMZA-272" value="deadline : datetime : 必" style="shape=partialRectangle;connectable=0;fillColor=none;top=0;left=0;bottom=0;right=0;align=left;spacingLeft=6;overflow=hidden;" vertex="1" parent="CehHZMc9VXragpEMrMZA-270">
          <mxGeometry x="30" width="150" height="30" as="geometry" />
        </mxCell>
        <mxCell id="CehHZMc9VXragpEMrMZA-273" style="shape=partialRectangle;collapsible=0;dropTarget=0;pointerEvents=0;fillColor=none;top=0;left=0;bottom=0;right=0;points=[[0,0.5],[1,0.5]];portConstraint=eastwest;" vertex="1" parent="CehHZMc9VXragpEMrMZA-245">
          <mxGeometry y="300" width="180" height="30" as="geometry" />
        </mxCell>
        <mxCell id="CehHZMc9VXragpEMrMZA-274" style="shape=partialRectangle;connectable=0;fillColor=none;top=0;left=0;bottom=0;right=0;editable=1;overflow=hidden;" vertex="1" parent="CehHZMc9VXragpEMrMZA-273">
          <mxGeometry width="30" height="30" as="geometry" />
        </mxCell>
        <mxCell id="CehHZMc9VXragpEMrMZA-275" value="acceptNo : int : 必" style="shape=partialRectangle;connectable=0;fillColor=none;top=0;left=0;bottom=0;right=0;align=left;spacingLeft=6;overflow=hidden;" vertex="1" parent="CehHZMc9VXragpEMrMZA-273">
          <mxGeometry x="30" width="150" height="30" as="geometry" />
        </mxCell>
        <mxCell id="CehHZMc9VXragpEMrMZA-276" style="shape=partialRectangle;collapsible=0;dropTarget=0;pointerEvents=0;fillColor=none;top=0;left=0;bottom=0;right=0;points=[[0,0.5],[1,0.5]];portConstraint=eastwest;" vertex="1" parent="CehHZMc9VXragpEMrMZA-245">
          <mxGeometry y="330" width="180" height="30" as="geometry" />
        </mxCell>
        <mxCell id="CehHZMc9VXragpEMrMZA-277" style="shape=partialRectangle;connectable=0;fillColor=none;top=0;left=0;bottom=0;right=0;editable=1;overflow=hidden;" vertex="1" parent="CehHZMc9VXragpEMrMZA-276">
          <mxGeometry width="30" height="30" as="geometry" />
        </mxCell>
        <mxCell id="CehHZMc9VXragpEMrMZA-278" value="description : string : 必" style="shape=partialRectangle;connectable=0;fillColor=none;top=0;left=0;bottom=0;right=0;align=left;spacingLeft=6;overflow=hidden;" vertex="1" parent="CehHZMc9VXragpEMrMZA-276">
          <mxGeometry x="30" width="150" height="30" as="geometry" />
        </mxCell>
        <mxCell id="CehHZMc9VXragpEMrMZA-538" style="shape=partialRectangle;collapsible=0;dropTarget=0;pointerEvents=0;fillColor=none;top=0;left=0;bottom=0;right=0;points=[[0,0.5],[1,0.5]];portConstraint=eastwest;" vertex="1" parent="CehHZMc9VXragpEMrMZA-245">
          <mxGeometry y="360" width="180" height="30" as="geometry" />
        </mxCell>
        <mxCell id="CehHZMc9VXragpEMrMZA-539" style="shape=partialRectangle;connectable=0;fillColor=none;top=0;left=0;bottom=0;right=0;editable=1;overflow=hidden;" vertex="1" parent="CehHZMc9VXragpEMrMZA-538">
          <mxGeometry width="30" height="30" as="geometry" />
        </mxCell>
        <mxCell id="CehHZMc9VXragpEMrMZA-540" value="status : bool : 必" style="shape=partialRectangle;connectable=0;fillColor=none;top=0;left=0;bottom=0;right=0;align=left;spacingLeft=6;overflow=hidden;" vertex="1" parent="CehHZMc9VXragpEMrMZA-538">
          <mxGeometry x="30" width="150" height="30" as="geometry" />
        </mxCell>
        <mxCell id="CehHZMc9VXragpEMrMZA-535" style="shape=partialRectangle;collapsible=0;dropTarget=0;pointerEvents=0;fillColor=none;top=0;left=0;bottom=0;right=0;points=[[0,0.5],[1,0.5]];portConstraint=eastwest;" vertex="1" parent="CehHZMc9VXragpEMrMZA-245">
          <mxGeometry y="390" width="180" height="30" as="geometry" />
        </mxCell>
        <mxCell id="CehHZMc9VXragpEMrMZA-536" style="shape=partialRectangle;connectable=0;fillColor=none;top=0;left=0;bottom=0;right=0;editable=1;overflow=hidden;" vertex="1" parent="CehHZMc9VXragpEMrMZA-535">
          <mxGeometry width="30" height="30" as="geometry" />
        </mxCell>
        <mxCell id="CehHZMc9VXragpEMrMZA-537" value="created_at : datetime : 必" style="shape=partialRectangle;connectable=0;fillColor=none;top=0;left=0;bottom=0;right=0;align=left;spacingLeft=6;overflow=hidden;" vertex="1" parent="CehHZMc9VXragpEMrMZA-535">
          <mxGeometry x="30" width="150" height="30" as="geometry" />
        </mxCell>
        <mxCell id="CehHZMc9VXragpEMrMZA-532" style="shape=partialRectangle;collapsible=0;dropTarget=0;pointerEvents=0;fillColor=none;top=0;left=0;bottom=0;right=0;points=[[0,0.5],[1,0.5]];portConstraint=eastwest;" vertex="1" parent="CehHZMc9VXragpEMrMZA-245">
          <mxGeometry y="420" width="180" height="30" as="geometry" />
        </mxCell>
        <mxCell id="CehHZMc9VXragpEMrMZA-533" style="shape=partialRectangle;connectable=0;fillColor=none;top=0;left=0;bottom=0;right=0;editable=1;overflow=hidden;" vertex="1" parent="CehHZMc9VXragpEMrMZA-532">
          <mxGeometry width="30" height="30" as="geometry" />
        </mxCell>
        <mxCell id="CehHZMc9VXragpEMrMZA-534" value="updated_at : datetime : 必" style="shape=partialRectangle;connectable=0;fillColor=none;top=0;left=0;bottom=0;right=0;align=left;spacingLeft=6;overflow=hidden;" vertex="1" parent="CehHZMc9VXragpEMrMZA-532">
          <mxGeometry x="30" width="150" height="30" as="geometry" />
        </mxCell>
        <mxCell id="CehHZMc9VXragpEMrMZA-279" value="Participant" style="shape=table;startSize=30;container=1;collapsible=1;childLayout=tableLayout;fixedRows=1;rowLines=0;fontStyle=1;align=center;resizeLast=1;" vertex="1" parent="1">
          <mxGeometry x="791" y="920" width="180" height="150" as="geometry" />
        </mxCell>
        <mxCell id="CehHZMc9VXragpEMrMZA-280" value="" style="shape=partialRectangle;collapsible=0;dropTarget=0;pointerEvents=0;fillColor=none;top=0;left=0;bottom=1;right=0;points=[[0,0.5],[1,0.5]];portConstraint=eastwest;" vertex="1" parent="CehHZMc9VXragpEMrMZA-279">
          <mxGeometry y="30" width="180" height="30" as="geometry" />
        </mxCell>
        <mxCell id="CehHZMc9VXragpEMrMZA-281" value="PK" style="shape=partialRectangle;connectable=0;fillColor=none;top=0;left=0;bottom=0;right=0;fontStyle=1;overflow=hidden;" vertex="1" parent="CehHZMc9VXragpEMrMZA-280">
          <mxGeometry width="30" height="30" as="geometry" />
        </mxCell>
        <mxCell id="CehHZMc9VXragpEMrMZA-282" value="id:int:必" style="shape=partialRectangle;connectable=0;fillColor=none;top=0;left=0;bottom=0;right=0;align=left;spacingLeft=6;fontStyle=5;overflow=hidden;" vertex="1" parent="CehHZMc9VXragpEMrMZA-280">
          <mxGeometry x="30" width="150" height="30" as="geometry" />
        </mxCell>
        <mxCell id="CehHZMc9VXragpEMrMZA-283" value="" style="shape=partialRectangle;collapsible=0;dropTarget=0;pointerEvents=0;fillColor=none;top=0;left=0;bottom=1;right=0;points=[[0,0.5],[1,0.5]];portConstraint=eastwest;" vertex="1" parent="CehHZMc9VXragpEMrMZA-279">
          <mxGeometry y="60" width="180" height="30" as="geometry" />
        </mxCell>
        <mxCell id="CehHZMc9VXragpEMrMZA-284" value="FK" style="shape=partialRectangle;connectable=0;fillColor=none;top=0;left=0;bottom=0;right=0;fontStyle=1;overflow=hidden;" vertex="1" parent="CehHZMc9VXragpEMrMZA-283">
          <mxGeometry width="30" height="30" as="geometry" />
        </mxCell>
        <mxCell id="CehHZMc9VXragpEMrMZA-285" value="user_id" style="shape=partialRectangle;connectable=0;fillColor=none;top=0;left=0;bottom=0;right=0;align=left;spacingLeft=6;fontStyle=5;overflow=hidden;" vertex="1" parent="CehHZMc9VXragpEMrMZA-283">
          <mxGeometry x="30" width="150" height="30" as="geometry" />
        </mxCell>
        <mxCell id="CehHZMc9VXragpEMrMZA-369" value="" style="shape=partialRectangle;collapsible=0;dropTarget=0;pointerEvents=0;fillColor=none;top=0;left=0;bottom=1;right=0;points=[[0,0.5],[1,0.5]];portConstraint=eastwest;" vertex="1" parent="CehHZMc9VXragpEMrMZA-279">
          <mxGeometry y="90" width="180" height="30" as="geometry" />
        </mxCell>
        <mxCell id="CehHZMc9VXragpEMrMZA-370" value="FK" style="shape=partialRectangle;connectable=0;fillColor=none;top=0;left=0;bottom=0;right=0;fontStyle=1;overflow=hidden;" vertex="1" parent="CehHZMc9VXragpEMrMZA-369">
          <mxGeometry width="30" height="30" as="geometry" />
        </mxCell>
        <mxCell id="CehHZMc9VXragpEMrMZA-371" value="event_id" style="shape=partialRectangle;connectable=0;fillColor=none;top=0;left=0;bottom=0;right=0;align=left;spacingLeft=6;fontStyle=5;overflow=hidden;" vertex="1" parent="CehHZMc9VXragpEMrMZA-369">
          <mxGeometry x="30" width="150" height="30" as="geometry" />
        </mxCell>
        <mxCell id="CehHZMc9VXragpEMrMZA-372" value="" style="shape=partialRectangle;collapsible=0;dropTarget=0;pointerEvents=0;fillColor=none;top=0;left=0;bottom=1;right=0;points=[[0,0.5],[1,0.5]];portConstraint=eastwest;" vertex="1" parent="CehHZMc9VXragpEMrMZA-279">
          <mxGeometry y="120" width="180" height="30" as="geometry" />
        </mxCell>
        <mxCell id="CehHZMc9VXragpEMrMZA-373" value="FK" style="shape=partialRectangle;connectable=0;fillColor=none;top=0;left=0;bottom=0;right=0;fontStyle=1;overflow=hidden;" vertex="1" parent="CehHZMc9VXragpEMrMZA-372">
          <mxGeometry width="30" height="30" as="geometry" />
        </mxCell>
        <mxCell id="CehHZMc9VXragpEMrMZA-374" value="card_id" style="shape=partialRectangle;connectable=0;fillColor=none;top=0;left=0;bottom=0;right=0;align=left;spacingLeft=6;fontStyle=5;overflow=hidden;" vertex="1" parent="CehHZMc9VXragpEMrMZA-372">
          <mxGeometry x="30" width="150" height="30" as="geometry" />
        </mxCell>
        <mxCell id="CehHZMc9VXragpEMrMZA-316" value="Oder" style="shape=table;startSize=30;container=1;collapsible=1;childLayout=tableLayout;fixedRows=1;rowLines=0;fontStyle=1;align=center;resizeLast=1;" vertex="1" parent="1">
          <mxGeometry x="580" y="920" width="180" height="210" as="geometry" />
        </mxCell>
        <mxCell id="CehHZMc9VXragpEMrMZA-317" value="" style="shape=partialRectangle;collapsible=0;dropTarget=0;pointerEvents=0;fillColor=none;top=0;left=0;bottom=1;right=0;points=[[0,0.5],[1,0.5]];portConstraint=eastwest;" vertex="1" parent="CehHZMc9VXragpEMrMZA-316">
          <mxGeometry y="30" width="180" height="30" as="geometry" />
        </mxCell>
        <mxCell id="CehHZMc9VXragpEMrMZA-318" value="PK" style="shape=partialRectangle;connectable=0;fillColor=none;top=0;left=0;bottom=0;right=0;fontStyle=1;overflow=hidden;" vertex="1" parent="CehHZMc9VXragpEMrMZA-317">
          <mxGeometry width="30" height="30" as="geometry" />
        </mxCell>
        <mxCell id="CehHZMc9VXragpEMrMZA-319" value="id:int:必" style="shape=partialRectangle;connectable=0;fillColor=none;top=0;left=0;bottom=0;right=0;align=left;spacingLeft=6;fontStyle=5;overflow=hidden;" vertex="1" parent="CehHZMc9VXragpEMrMZA-317">
          <mxGeometry x="30" width="150" height="30" as="geometry" />
        </mxCell>
        <mxCell id="CehHZMc9VXragpEMrMZA-320" value="" style="shape=partialRectangle;collapsible=0;dropTarget=0;pointerEvents=0;fillColor=none;top=0;left=0;bottom=1;right=0;points=[[0,0.5],[1,0.5]];portConstraint=eastwest;" vertex="1" parent="CehHZMc9VXragpEMrMZA-316">
          <mxGeometry y="60" width="180" height="30" as="geometry" />
        </mxCell>
        <mxCell id="CehHZMc9VXragpEMrMZA-321" value="FK" style="shape=partialRectangle;connectable=0;fillColor=none;top=0;left=0;bottom=0;right=0;fontStyle=1;overflow=hidden;" vertex="1" parent="CehHZMc9VXragpEMrMZA-320">
          <mxGeometry width="30" height="30" as="geometry" />
        </mxCell>
        <mxCell id="CehHZMc9VXragpEMrMZA-322" value="user_id" style="shape=partialRectangle;connectable=0;fillColor=none;top=0;left=0;bottom=0;right=0;align=left;spacingLeft=6;fontStyle=5;overflow=hidden;" vertex="1" parent="CehHZMc9VXragpEMrMZA-320">
          <mxGeometry x="30" width="150" height="30" as="geometry" />
        </mxCell>
        <mxCell id="CehHZMc9VXragpEMrMZA-344" value="" style="shape=partialRectangle;collapsible=0;dropTarget=0;pointerEvents=0;fillColor=none;top=0;left=0;bottom=1;right=0;points=[[0,0.5],[1,0.5]];portConstraint=eastwest;" vertex="1" parent="CehHZMc9VXragpEMrMZA-316">
          <mxGeometry y="90" width="180" height="30" as="geometry" />
        </mxCell>
        <mxCell id="CehHZMc9VXragpEMrMZA-345" value="FK" style="shape=partialRectangle;connectable=0;fillColor=none;top=0;left=0;bottom=0;right=0;fontStyle=1;overflow=hidden;" vertex="1" parent="CehHZMc9VXragpEMrMZA-344">
          <mxGeometry width="30" height="30" as="geometry" />
        </mxCell>
        <mxCell id="CehHZMc9VXragpEMrMZA-346" value="photo_id" style="shape=partialRectangle;connectable=0;fillColor=none;top=0;left=0;bottom=0;right=0;align=left;spacingLeft=6;fontStyle=5;overflow=hidden;" vertex="1" parent="CehHZMc9VXragpEMrMZA-344">
          <mxGeometry x="30" width="150" height="30" as="geometry" />
        </mxCell>
        <mxCell id="CehHZMc9VXragpEMrMZA-347" value="" style="shape=partialRectangle;collapsible=0;dropTarget=0;pointerEvents=0;fillColor=none;top=0;left=0;bottom=1;right=0;points=[[0,0.5],[1,0.5]];portConstraint=eastwest;" vertex="1" parent="CehHZMc9VXragpEMrMZA-316">
          <mxGeometry y="120" width="180" height="30" as="geometry" />
        </mxCell>
        <mxCell id="CehHZMc9VXragpEMrMZA-348" value="FK" style="shape=partialRectangle;connectable=0;fillColor=none;top=0;left=0;bottom=0;right=0;fontStyle=1;overflow=hidden;" vertex="1" parent="CehHZMc9VXragpEMrMZA-347">
          <mxGeometry width="30" height="30" as="geometry" />
        </mxCell>
        <mxCell id="CehHZMc9VXragpEMrMZA-349" value="card_id" style="shape=partialRectangle;connectable=0;fillColor=none;top=0;left=0;bottom=0;right=0;align=left;spacingLeft=6;fontStyle=5;overflow=hidden;" vertex="1" parent="CehHZMc9VXragpEMrMZA-347">
          <mxGeometry x="30" width="150" height="30" as="geometry" />
        </mxCell>
        <mxCell id="CehHZMc9VXragpEMrMZA-323" value="" style="shape=partialRectangle;collapsible=0;dropTarget=0;pointerEvents=0;fillColor=none;top=0;left=0;bottom=0;right=0;points=[[0,0.5],[1,0.5]];portConstraint=eastwest;" vertex="1" parent="CehHZMc9VXragpEMrMZA-316">
          <mxGeometry y="150" width="180" height="30" as="geometry" />
        </mxCell>
        <mxCell id="CehHZMc9VXragpEMrMZA-324" value="" style="shape=partialRectangle;connectable=0;fillColor=none;top=0;left=0;bottom=0;right=0;editable=1;overflow=hidden;" vertex="1" parent="CehHZMc9VXragpEMrMZA-323">
          <mxGeometry width="30" height="30" as="geometry" />
        </mxCell>
        <mxCell id="CehHZMc9VXragpEMrMZA-325" value="date" style="shape=partialRectangle;connectable=0;fillColor=none;top=0;left=0;bottom=0;right=0;align=left;spacingLeft=6;overflow=hidden;" vertex="1" parent="CehHZMc9VXragpEMrMZA-323">
          <mxGeometry x="30" width="150" height="30" as="geometry" />
        </mxCell>
        <mxCell id="CehHZMc9VXragpEMrMZA-326" value="" style="shape=partialRectangle;collapsible=0;dropTarget=0;pointerEvents=0;fillColor=none;top=0;left=0;bottom=0;right=0;points=[[0,0.5],[1,0.5]];portConstraint=eastwest;" vertex="1" parent="CehHZMc9VXragpEMrMZA-316">
          <mxGeometry y="180" width="180" height="30" as="geometry" />
        </mxCell>
        <mxCell id="CehHZMc9VXragpEMrMZA-327" value="" style="shape=partialRectangle;connectable=0;fillColor=none;top=0;left=0;bottom=0;right=0;editable=1;overflow=hidden;" vertex="1" parent="CehHZMc9VXragpEMrMZA-326">
          <mxGeometry width="30" height="30" as="geometry" />
        </mxCell>
        <mxCell id="CehHZMc9VXragpEMrMZA-328" value="time" style="shape=partialRectangle;connectable=0;fillColor=none;top=0;left=0;bottom=0;right=0;align=left;spacingLeft=6;overflow=hidden;" vertex="1" parent="CehHZMc9VXragpEMrMZA-326">
          <mxGeometry x="30" width="150" height="30" as="geometry" />
        </mxCell>
        <mxCell id="CehHZMc9VXragpEMrMZA-375" value="Favorite" style="shape=table;startSize=30;container=1;collapsible=1;childLayout=tableLayout;fixedRows=1;rowLines=0;fontStyle=1;align=center;resizeLast=1;" vertex="1" parent="1">
          <mxGeometry x="271" y="80" width="180" height="180" as="geometry" />
        </mxCell>
        <mxCell id="CehHZMc9VXragpEMrMZA-376" value="" style="shape=partialRectangle;collapsible=0;dropTarget=0;pointerEvents=0;fillColor=none;top=0;left=0;bottom=1;right=0;points=[[0,0.5],[1,0.5]];portConstraint=eastwest;" vertex="1" parent="CehHZMc9VXragpEMrMZA-375">
          <mxGeometry y="30" width="180" height="30" as="geometry" />
        </mxCell>
        <mxCell id="CehHZMc9VXragpEMrMZA-377" value="PK" style="shape=partialRectangle;connectable=0;fillColor=none;top=0;left=0;bottom=0;right=0;fontStyle=1;overflow=hidden;" vertex="1" parent="CehHZMc9VXragpEMrMZA-376">
          <mxGeometry width="30" height="30" as="geometry" />
        </mxCell>
        <mxCell id="CehHZMc9VXragpEMrMZA-378" value="id:int:必" style="shape=partialRectangle;connectable=0;fillColor=none;top=0;left=0;bottom=0;right=0;align=left;spacingLeft=6;fontStyle=5;overflow=hidden;" vertex="1" parent="CehHZMc9VXragpEMrMZA-376">
          <mxGeometry x="30" width="150" height="30" as="geometry" />
        </mxCell>
        <mxCell id="CehHZMc9VXragpEMrMZA-379" value="" style="shape=partialRectangle;collapsible=0;dropTarget=0;pointerEvents=0;fillColor=none;top=0;left=0;bottom=0;right=0;points=[[0,0.5],[1,0.5]];portConstraint=eastwest;" vertex="1" parent="CehHZMc9VXragpEMrMZA-375">
          <mxGeometry y="60" width="180" height="30" as="geometry" />
        </mxCell>
        <mxCell id="CehHZMc9VXragpEMrMZA-380" value="FK" style="shape=partialRectangle;connectable=0;fillColor=none;top=0;left=0;bottom=0;right=0;editable=1;overflow=hidden;" vertex="1" parent="CehHZMc9VXragpEMrMZA-379">
          <mxGeometry width="30" height="30" as="geometry" />
        </mxCell>
        <mxCell id="CehHZMc9VXragpEMrMZA-381" value="user_id : int : 必" style="shape=partialRectangle;connectable=0;fillColor=none;top=0;left=0;bottom=0;right=0;align=left;spacingLeft=6;overflow=hidden;" vertex="1" parent="CehHZMc9VXragpEMrMZA-379">
          <mxGeometry x="30" width="150" height="30" as="geometry" />
        </mxCell>
        <mxCell id="CehHZMc9VXragpEMrMZA-382" value="" style="shape=partialRectangle;collapsible=0;dropTarget=0;pointerEvents=0;fillColor=none;top=0;left=0;bottom=0;right=0;points=[[0,0.5],[1,0.5]];portConstraint=eastwest;" vertex="1" parent="CehHZMc9VXragpEMrMZA-375">
          <mxGeometry y="90" width="180" height="30" as="geometry" />
        </mxCell>
        <mxCell id="CehHZMc9VXragpEMrMZA-383" value="FK" style="shape=partialRectangle;connectable=0;fillColor=none;top=0;left=0;bottom=0;right=0;editable=1;overflow=hidden;" vertex="1" parent="CehHZMc9VXragpEMrMZA-382">
          <mxGeometry width="30" height="30" as="geometry" />
        </mxCell>
        <mxCell id="CehHZMc9VXragpEMrMZA-384" value="topic_id : int : 必" style="shape=partialRectangle;connectable=0;fillColor=none;top=0;left=0;bottom=0;right=0;align=left;spacingLeft=6;overflow=hidden;" vertex="1" parent="CehHZMc9VXragpEMrMZA-382">
          <mxGeometry x="30" width="150" height="30" as="geometry" />
        </mxCell>
        <mxCell id="CehHZMc9VXragpEMrMZA-385" value="" style="shape=partialRectangle;collapsible=0;dropTarget=0;pointerEvents=0;fillColor=none;top=0;left=0;bottom=0;right=0;points=[[0,0.5],[1,0.5]];portConstraint=eastwest;" vertex="1" parent="CehHZMc9VXragpEMrMZA-375">
          <mxGeometry y="120" width="180" height="30" as="geometry" />
        </mxCell>
        <mxCell id="CehHZMc9VXragpEMrMZA-386" value="" style="shape=partialRectangle;connectable=0;fillColor=none;top=0;left=0;bottom=0;right=0;editable=1;overflow=hidden;" vertex="1" parent="CehHZMc9VXragpEMrMZA-385">
          <mxGeometry width="30" height="30" as="geometry" />
        </mxCell>
        <mxCell id="CehHZMc9VXragpEMrMZA-387" value="created_at : datetime : 必" style="shape=partialRectangle;connectable=0;fillColor=none;top=0;left=0;bottom=0;right=0;align=left;spacingLeft=6;overflow=hidden;" vertex="1" parent="CehHZMc9VXragpEMrMZA-385">
          <mxGeometry x="30" width="150" height="30" as="geometry" />
        </mxCell>
        <mxCell id="CehHZMc9VXragpEMrMZA-388" style="shape=partialRectangle;collapsible=0;dropTarget=0;pointerEvents=0;fillColor=none;top=0;left=0;bottom=0;right=0;points=[[0,0.5],[1,0.5]];portConstraint=eastwest;" vertex="1" parent="CehHZMc9VXragpEMrMZA-375">
          <mxGeometry y="150" width="180" height="30" as="geometry" />
        </mxCell>
        <mxCell id="CehHZMc9VXragpEMrMZA-389" style="shape=partialRectangle;connectable=0;fillColor=none;top=0;left=0;bottom=0;right=0;editable=1;overflow=hidden;" vertex="1" parent="CehHZMc9VXragpEMrMZA-388">
          <mxGeometry width="30" height="30" as="geometry" />
        </mxCell>
        <mxCell id="CehHZMc9VXragpEMrMZA-390" value="updated_at : datetime : 必" style="shape=partialRectangle;connectable=0;fillColor=none;top=0;left=0;bottom=0;right=0;align=left;spacingLeft=6;overflow=hidden;" vertex="1" parent="CehHZMc9VXragpEMrMZA-388">
          <mxGeometry x="30" width="150" height="30" as="geometry" />
        </mxCell>
        <mxCell id="CehHZMc9VXragpEMrMZA-423" value="Comment" style="shape=table;startSize=30;container=1;collapsible=1;childLayout=tableLayout;fixedRows=1;rowLines=0;fontStyle=1;align=center;resizeLast=1;" vertex="1" parent="1">
          <mxGeometry x="271" y="290" width="180" height="210" as="geometry" />
        </mxCell>
        <mxCell id="CehHZMc9VXragpEMrMZA-424" value="" style="shape=partialRectangle;collapsible=0;dropTarget=0;pointerEvents=0;fillColor=none;top=0;left=0;bottom=1;right=0;points=[[0,0.5],[1,0.5]];portConstraint=eastwest;" vertex="1" parent="CehHZMc9VXragpEMrMZA-423">
          <mxGeometry y="30" width="180" height="30" as="geometry" />
        </mxCell>
        <mxCell id="CehHZMc9VXragpEMrMZA-425" value="PK" style="shape=partialRectangle;connectable=0;fillColor=none;top=0;left=0;bottom=0;right=0;fontStyle=1;overflow=hidden;" vertex="1" parent="CehHZMc9VXragpEMrMZA-424">
          <mxGeometry width="30" height="30" as="geometry" />
        </mxCell>
        <mxCell id="CehHZMc9VXragpEMrMZA-426" value="id:int:必" style="shape=partialRectangle;connectable=0;fillColor=none;top=0;left=0;bottom=0;right=0;align=left;spacingLeft=6;fontStyle=5;overflow=hidden;" vertex="1" parent="CehHZMc9VXragpEMrMZA-424">
          <mxGeometry x="30" width="150" height="30" as="geometry" />
        </mxCell>
        <mxCell id="CehHZMc9VXragpEMrMZA-427" value="" style="shape=partialRectangle;collapsible=0;dropTarget=0;pointerEvents=0;fillColor=none;top=0;left=0;bottom=0;right=0;points=[[0,0.5],[1,0.5]];portConstraint=eastwest;" vertex="1" parent="CehHZMc9VXragpEMrMZA-423">
          <mxGeometry y="60" width="180" height="30" as="geometry" />
        </mxCell>
        <mxCell id="CehHZMc9VXragpEMrMZA-428" value="FK" style="shape=partialRectangle;connectable=0;fillColor=none;top=0;left=0;bottom=0;right=0;editable=1;overflow=hidden;" vertex="1" parent="CehHZMc9VXragpEMrMZA-427">
          <mxGeometry width="30" height="30" as="geometry" />
        </mxCell>
        <mxCell id="CehHZMc9VXragpEMrMZA-429" value="user_id : int : 必" style="shape=partialRectangle;connectable=0;fillColor=none;top=0;left=0;bottom=0;right=0;align=left;spacingLeft=6;overflow=hidden;" vertex="1" parent="CehHZMc9VXragpEMrMZA-427">
          <mxGeometry x="30" width="150" height="30" as="geometry" />
        </mxCell>
        <mxCell id="CehHZMc9VXragpEMrMZA-430" value="" style="shape=partialRectangle;collapsible=0;dropTarget=0;pointerEvents=0;fillColor=none;top=0;left=0;bottom=0;right=0;points=[[0,0.5],[1,0.5]];portConstraint=eastwest;" vertex="1" parent="CehHZMc9VXragpEMrMZA-423">
          <mxGeometry y="90" width="180" height="30" as="geometry" />
        </mxCell>
        <mxCell id="CehHZMc9VXragpEMrMZA-431" value="FK" style="shape=partialRectangle;connectable=0;fillColor=none;top=0;left=0;bottom=0;right=0;editable=1;overflow=hidden;" vertex="1" parent="CehHZMc9VXragpEMrMZA-430">
          <mxGeometry width="30" height="30" as="geometry" />
        </mxCell>
        <mxCell id="CehHZMc9VXragpEMrMZA-432" value="topic_id : int : 必" style="shape=partialRectangle;connectable=0;fillColor=none;top=0;left=0;bottom=0;right=0;align=left;spacingLeft=6;overflow=hidden;" vertex="1" parent="CehHZMc9VXragpEMrMZA-430">
          <mxGeometry x="30" width="150" height="30" as="geometry" />
        </mxCell>
        <mxCell id="CehHZMc9VXragpEMrMZA-433" value="" style="shape=partialRectangle;collapsible=0;dropTarget=0;pointerEvents=0;fillColor=none;top=0;left=0;bottom=0;right=0;points=[[0,0.5],[1,0.5]];portConstraint=eastwest;" vertex="1" parent="CehHZMc9VXragpEMrMZA-423">
          <mxGeometry y="120" width="180" height="30" as="geometry" />
        </mxCell>
        <mxCell id="CehHZMc9VXragpEMrMZA-434" value="" style="shape=partialRectangle;connectable=0;fillColor=none;top=0;left=0;bottom=0;right=0;editable=1;overflow=hidden;" vertex="1" parent="CehHZMc9VXragpEMrMZA-433">
          <mxGeometry width="30" height="30" as="geometry" />
        </mxCell>
        <mxCell id="CehHZMc9VXragpEMrMZA-435" value="text : string : 必" style="shape=partialRectangle;connectable=0;fillColor=none;top=0;left=0;bottom=0;right=0;align=left;spacingLeft=6;overflow=hidden;" vertex="1" parent="CehHZMc9VXragpEMrMZA-433">
          <mxGeometry x="30" width="150" height="30" as="geometry" />
        </mxCell>
        <mxCell id="CehHZMc9VXragpEMrMZA-445" style="shape=partialRectangle;collapsible=0;dropTarget=0;pointerEvents=0;fillColor=none;top=0;left=0;bottom=0;right=0;points=[[0,0.5],[1,0.5]];portConstraint=eastwest;" vertex="1" parent="CehHZMc9VXragpEMrMZA-423">
          <mxGeometry y="150" width="180" height="30" as="geometry" />
        </mxCell>
        <mxCell id="CehHZMc9VXragpEMrMZA-446" style="shape=partialRectangle;connectable=0;fillColor=none;top=0;left=0;bottom=0;right=0;editable=1;overflow=hidden;" vertex="1" parent="CehHZMc9VXragpEMrMZA-445">
          <mxGeometry width="30" height="30" as="geometry" />
        </mxCell>
        <mxCell id="CehHZMc9VXragpEMrMZA-447" value="created_at : datetime : 必" style="shape=partialRectangle;connectable=0;fillColor=none;top=0;left=0;bottom=0;right=0;align=left;spacingLeft=6;overflow=hidden;" vertex="1" parent="CehHZMc9VXragpEMrMZA-445">
          <mxGeometry x="30" width="150" height="30" as="geometry" />
        </mxCell>
        <mxCell id="CehHZMc9VXragpEMrMZA-436" style="shape=partialRectangle;collapsible=0;dropTarget=0;pointerEvents=0;fillColor=none;top=0;left=0;bottom=0;right=0;points=[[0,0.5],[1,0.5]];portConstraint=eastwest;" vertex="1" parent="CehHZMc9VXragpEMrMZA-423">
          <mxGeometry y="180" width="180" height="30" as="geometry" />
        </mxCell>
        <mxCell id="CehHZMc9VXragpEMrMZA-437" style="shape=partialRectangle;connectable=0;fillColor=none;top=0;left=0;bottom=0;right=0;editable=1;overflow=hidden;" vertex="1" parent="CehHZMc9VXragpEMrMZA-436">
          <mxGeometry width="30" height="30" as="geometry" />
        </mxCell>
        <mxCell id="CehHZMc9VXragpEMrMZA-438" value="updated_at : datetime : 必" style="shape=partialRectangle;connectable=0;fillColor=none;top=0;left=0;bottom=0;right=0;align=left;spacingLeft=6;overflow=hidden;" vertex="1" parent="CehHZMc9VXragpEMrMZA-436">
          <mxGeometry x="30" width="150" height="30" as="geometry" />
        </mxCell>
        <mxCell id="CehHZMc9VXragpEMrMZA-448" value="" style="edgeStyle=entityRelationEdgeStyle;fontSize=12;html=1;endArrow=ERzeroToMany;endFill=1;entryX=0;entryY=0.5;entryDx=0;entryDy=0;exitX=1;exitY=0.5;exitDx=0;exitDy=0;startArrow=ERone;startFill=0;" edge="1" parent="1" source="CehHZMc9VXragpEMrMZA-5" target="CehHZMc9VXragpEMrMZA-376">
          <mxGeometry width="100" height="100" relative="1" as="geometry">
            <mxPoint x="70" y="400" as="sourcePoint" />
            <mxPoint x="170" y="300" as="targetPoint" />
          </mxGeometry>
        </mxCell>
        <mxCell id="CehHZMc9VXragpEMrMZA-449" value="" style="edgeStyle=entityRelationEdgeStyle;fontSize=12;html=1;endArrow=ERzeroToMany;endFill=1;entryX=0;entryY=0.5;entryDx=0;entryDy=0;exitX=1;exitY=0.5;exitDx=0;exitDy=0;startArrow=ERone;startFill=0;" edge="1" parent="1" source="CehHZMc9VXragpEMrMZA-2" target="CehHZMc9VXragpEMrMZA-474">
          <mxGeometry width="100" height="100" relative="1" as="geometry">
            <mxPoint x="210" y="105" as="sourcePoint" />
            <mxPoint x="520" y="65" as="targetPoint" />
          </mxGeometry>
        </mxCell>
        <mxCell id="CehHZMc9VXragpEMrMZA-450" value="" style="edgeStyle=entityRelationEdgeStyle;fontSize=12;html=1;endArrow=ERone;endFill=0;startArrow=ERzeroToMany;startFill=1;exitX=1;exitY=0.5;exitDx=0;exitDy=0;entryX=0.004;entryY=0.011;entryDx=0;entryDy=0;entryPerimeter=0;" edge="1" parent="1" source="CehHZMc9VXragpEMrMZA-376" target="CehHZMc9VXragpEMrMZA-477">
          <mxGeometry width="100" height="100" relative="1" as="geometry">
            <mxPoint x="460" y="180" as="sourcePoint" />
            <mxPoint x="520" y="80.33000000000004" as="targetPoint" />
          </mxGeometry>
        </mxCell>
        <mxCell id="CehHZMc9VXragpEMrMZA-451" value="" style="edgeStyle=entityRelationEdgeStyle;fontSize=12;html=1;endArrow=ERone;endFill=0;startArrow=ERzeroToMany;startFill=1;exitX=1;exitY=0.5;exitDx=0;exitDy=0;entryX=0;entryY=0.5;entryDx=0;entryDy=0;" edge="1" parent="1" source="CehHZMc9VXragpEMrMZA-424" target="CehHZMc9VXragpEMrMZA-477">
          <mxGeometry width="100" height="100" relative="1" as="geometry">
            <mxPoint x="450" y="135" as="sourcePoint" />
            <mxPoint x="520" y="95" as="targetPoint" />
          </mxGeometry>
        </mxCell>
        <mxCell id="CehHZMc9VXragpEMrMZA-452" value="" style="edgeStyle=entityRelationEdgeStyle;fontSize=12;html=1;endArrow=ERzeroToMany;endFill=1;entryX=0;entryY=0.5;entryDx=0;entryDy=0;exitX=1;exitY=0.5;exitDx=0;exitDy=0;startArrow=ERone;startFill=0;" edge="1" parent="1" source="CehHZMc9VXragpEMrMZA-8" target="CehHZMc9VXragpEMrMZA-424">
          <mxGeometry width="100" height="100" relative="1" as="geometry">
            <mxPoint x="210" y="105" as="sourcePoint" />
            <mxPoint x="270" y="135" as="targetPoint" />
          </mxGeometry>
        </mxCell>
        <mxCell id="CehHZMc9VXragpEMrMZA-462" value="" style="edgeStyle=entityRelationEdgeStyle;fontSize=12;html=1;endArrow=ERzeroToMany;endFill=1;entryX=0;entryY=0.5;entryDx=0;entryDy=0;exitX=1;exitY=0.5;exitDx=0;exitDy=0;startArrow=ERone;startFill=0;" edge="1" parent="1" source="CehHZMc9VXragpEMrMZA-11" target="CehHZMc9VXragpEMrMZA-63">
          <mxGeometry width="100" height="100" relative="1" as="geometry">
            <mxPoint x="210" y="135" as="sourcePoint" />
            <mxPoint x="281" y="345" as="targetPoint" />
          </mxGeometry>
        </mxCell>
        <mxCell id="CehHZMc9VXragpEMrMZA-473" value="Topic" style="shape=table;startSize=30;container=1;collapsible=1;childLayout=tableLayout;fixedRows=1;rowLines=0;fontStyle=1;align=center;resizeLast=1;" vertex="1" parent="1">
          <mxGeometry x="520" y="20" width="180" height="150" as="geometry" />
        </mxCell>
        <mxCell id="CehHZMc9VXragpEMrMZA-474" value="" style="shape=partialRectangle;collapsible=0;dropTarget=0;pointerEvents=0;fillColor=none;top=0;left=0;bottom=1;right=0;points=[[0,0.5],[1,0.5]];portConstraint=eastwest;" vertex="1" parent="CehHZMc9VXragpEMrMZA-473">
          <mxGeometry y="30" width="180" height="30" as="geometry" />
        </mxCell>
        <mxCell id="CehHZMc9VXragpEMrMZA-475" value="PK" style="shape=partialRectangle;connectable=0;fillColor=none;top=0;left=0;bottom=0;right=0;fontStyle=1;overflow=hidden;" vertex="1" parent="CehHZMc9VXragpEMrMZA-474">
          <mxGeometry width="30" height="30" as="geometry" />
        </mxCell>
        <mxCell id="CehHZMc9VXragpEMrMZA-476" value="id:int:必" style="shape=partialRectangle;connectable=0;fillColor=none;top=0;left=0;bottom=0;right=0;align=left;spacingLeft=6;fontStyle=5;overflow=hidden;" vertex="1" parent="CehHZMc9VXragpEMrMZA-474">
          <mxGeometry x="30" width="150" height="30" as="geometry" />
        </mxCell>
        <mxCell id="CehHZMc9VXragpEMrMZA-477" value="" style="shape=partialRectangle;collapsible=0;dropTarget=0;pointerEvents=0;fillColor=none;top=0;left=0;bottom=0;right=0;points=[[0,0.5],[1,0.5]];portConstraint=eastwest;" vertex="1" parent="CehHZMc9VXragpEMrMZA-473">
          <mxGeometry y="60" width="180" height="30" as="geometry" />
        </mxCell>
        <mxCell id="CehHZMc9VXragpEMrMZA-478" value="FK" style="shape=partialRectangle;connectable=0;fillColor=none;top=0;left=0;bottom=0;right=0;editable=1;overflow=hidden;" vertex="1" parent="CehHZMc9VXragpEMrMZA-477">
          <mxGeometry width="30" height="30" as="geometry" />
        </mxCell>
        <mxCell id="CehHZMc9VXragpEMrMZA-479" value="user_id : int : 必" style="shape=partialRectangle;connectable=0;fillColor=none;top=0;left=0;bottom=0;right=0;align=left;spacingLeft=6;overflow=hidden;" vertex="1" parent="CehHZMc9VXragpEMrMZA-477">
          <mxGeometry x="30" width="150" height="30" as="geometry" />
        </mxCell>
        <mxCell id="CehHZMc9VXragpEMrMZA-486" style="shape=partialRectangle;collapsible=0;dropTarget=0;pointerEvents=0;fillColor=none;top=0;left=0;bottom=0;right=0;points=[[0,0.5],[1,0.5]];portConstraint=eastwest;" vertex="1" parent="CehHZMc9VXragpEMrMZA-473">
          <mxGeometry y="90" width="180" height="30" as="geometry" />
        </mxCell>
        <mxCell id="CehHZMc9VXragpEMrMZA-487" style="shape=partialRectangle;connectable=0;fillColor=none;top=0;left=0;bottom=0;right=0;editable=1;overflow=hidden;" vertex="1" parent="CehHZMc9VXragpEMrMZA-486">
          <mxGeometry width="30" height="30" as="geometry" />
        </mxCell>
        <mxCell id="CehHZMc9VXragpEMrMZA-488" value="created_at : datetime : 必" style="shape=partialRectangle;connectable=0;fillColor=none;top=0;left=0;bottom=0;right=0;align=left;spacingLeft=6;overflow=hidden;" vertex="1" parent="CehHZMc9VXragpEMrMZA-486">
          <mxGeometry x="30" width="150" height="30" as="geometry" />
        </mxCell>
        <mxCell id="CehHZMc9VXragpEMrMZA-489" style="shape=partialRectangle;collapsible=0;dropTarget=0;pointerEvents=0;fillColor=none;top=0;left=0;bottom=0;right=0;points=[[0,0.5],[1,0.5]];portConstraint=eastwest;" vertex="1" parent="CehHZMc9VXragpEMrMZA-473">
          <mxGeometry y="120" width="180" height="30" as="geometry" />
        </mxCell>
        <mxCell id="CehHZMc9VXragpEMrMZA-490" style="shape=partialRectangle;connectable=0;fillColor=none;top=0;left=0;bottom=0;right=0;editable=1;overflow=hidden;" vertex="1" parent="CehHZMc9VXragpEMrMZA-489">
          <mxGeometry width="30" height="30" as="geometry" />
        </mxCell>
        <mxCell id="CehHZMc9VXragpEMrMZA-491" value="updated_at : datetime : 必" style="shape=partialRectangle;connectable=0;fillColor=none;top=0;left=0;bottom=0;right=0;align=left;spacingLeft=6;overflow=hidden;" vertex="1" parent="CehHZMc9VXragpEMrMZA-489">
          <mxGeometry x="30" width="150" height="30" as="geometry" />
        </mxCell>
        <mxCell id="CehHZMc9VXragpEMrMZA-492" value="Photo" style="shape=table;startSize=30;container=1;collapsible=1;childLayout=tableLayout;fixedRows=1;rowLines=0;fontStyle=1;align=center;resizeLast=1;" vertex="1" parent="1">
          <mxGeometry x="791" y="20" width="180" height="390" as="geometry" />
        </mxCell>
        <mxCell id="CehHZMc9VXragpEMrMZA-493" value="" style="shape=partialRectangle;collapsible=0;dropTarget=0;pointerEvents=0;fillColor=none;top=0;left=0;bottom=1;right=0;points=[[0,0.5],[1,0.5]];portConstraint=eastwest;" vertex="1" parent="CehHZMc9VXragpEMrMZA-492">
          <mxGeometry y="30" width="180" height="30" as="geometry" />
        </mxCell>
        <mxCell id="CehHZMc9VXragpEMrMZA-494" value="PK" style="shape=partialRectangle;connectable=0;fillColor=none;top=0;left=0;bottom=0;right=0;fontStyle=1;overflow=hidden;" vertex="1" parent="CehHZMc9VXragpEMrMZA-493">
          <mxGeometry width="30" height="30" as="geometry" />
        </mxCell>
        <mxCell id="CehHZMc9VXragpEMrMZA-495" value="id:int:必" style="shape=partialRectangle;connectable=0;fillColor=none;top=0;left=0;bottom=0;right=0;align=left;spacingLeft=6;fontStyle=5;overflow=hidden;" vertex="1" parent="CehHZMc9VXragpEMrMZA-493">
          <mxGeometry x="30" width="150" height="30" as="geometry" />
        </mxCell>
        <mxCell id="CehHZMc9VXragpEMrMZA-496" value="" style="shape=partialRectangle;collapsible=0;dropTarget=0;pointerEvents=0;fillColor=none;top=0;left=0;bottom=0;right=0;points=[[0,0.5],[1,0.5]];portConstraint=eastwest;" vertex="1" parent="CehHZMc9VXragpEMrMZA-492">
          <mxGeometry y="60" width="180" height="30" as="geometry" />
        </mxCell>
        <mxCell id="CehHZMc9VXragpEMrMZA-497" value="FK" style="shape=partialRectangle;connectable=0;fillColor=none;top=0;left=0;bottom=0;right=0;editable=1;overflow=hidden;" vertex="1" parent="CehHZMc9VXragpEMrMZA-496">
          <mxGeometry width="30" height="30" as="geometry" />
        </mxCell>
        <mxCell id="CehHZMc9VXragpEMrMZA-498" value="topic_id : int : 必" style="shape=partialRectangle;connectable=0;fillColor=none;top=0;left=0;bottom=0;right=0;align=left;spacingLeft=6;overflow=hidden;" vertex="1" parent="CehHZMc9VXragpEMrMZA-496">
          <mxGeometry x="30" width="150" height="30" as="geometry" />
        </mxCell>
        <mxCell id="CehHZMc9VXragpEMrMZA-505" value="" style="shape=partialRectangle;collapsible=0;dropTarget=0;pointerEvents=0;fillColor=none;top=0;left=0;bottom=0;right=0;points=[[0,0.5],[1,0.5]];portConstraint=eastwest;" vertex="1" parent="CehHZMc9VXragpEMrMZA-492">
          <mxGeometry y="90" width="180" height="30" as="geometry" />
        </mxCell>
        <mxCell id="CehHZMc9VXragpEMrMZA-506" value="FK" style="shape=partialRectangle;connectable=0;fillColor=none;top=0;left=0;bottom=0;right=0;editable=1;overflow=hidden;" vertex="1" parent="CehHZMc9VXragpEMrMZA-505">
          <mxGeometry width="30" height="30" as="geometry" />
        </mxCell>
        <mxCell id="CehHZMc9VXragpEMrMZA-507" value="condition_id : int : 必" style="shape=partialRectangle;connectable=0;fillColor=none;top=0;left=0;bottom=0;right=0;align=left;spacingLeft=6;overflow=hidden;" vertex="1" parent="CehHZMc9VXragpEMrMZA-505">
          <mxGeometry x="30" width="150" height="30" as="geometry" />
        </mxCell>
        <mxCell id="CehHZMc9VXragpEMrMZA-499" style="shape=partialRectangle;collapsible=0;dropTarget=0;pointerEvents=0;fillColor=none;top=0;left=0;bottom=0;right=0;points=[[0,0.5],[1,0.5]];portConstraint=eastwest;" vertex="1" parent="CehHZMc9VXragpEMrMZA-492">
          <mxGeometry y="120" width="180" height="30" as="geometry" />
        </mxCell>
        <mxCell id="CehHZMc9VXragpEMrMZA-500" style="shape=partialRectangle;connectable=0;fillColor=none;top=0;left=0;bottom=0;right=0;editable=1;overflow=hidden;" vertex="1" parent="CehHZMc9VXragpEMrMZA-499">
          <mxGeometry width="30" height="30" as="geometry" />
        </mxCell>
        <mxCell id="CehHZMc9VXragpEMrMZA-501" value="title : string : 必" style="shape=partialRectangle;connectable=0;fillColor=none;top=0;left=0;bottom=0;right=0;align=left;spacingLeft=6;overflow=hidden;" vertex="1" parent="CehHZMc9VXragpEMrMZA-499">
          <mxGeometry x="30" width="150" height="30" as="geometry" />
        </mxCell>
        <mxCell id="CehHZMc9VXragpEMrMZA-511" style="shape=partialRectangle;collapsible=0;dropTarget=0;pointerEvents=0;fillColor=none;top=0;left=0;bottom=0;right=0;points=[[0,0.5],[1,0.5]];portConstraint=eastwest;" vertex="1" parent="CehHZMc9VXragpEMrMZA-492">
          <mxGeometry y="150" width="180" height="30" as="geometry" />
        </mxCell>
        <mxCell id="CehHZMc9VXragpEMrMZA-512" style="shape=partialRectangle;connectable=0;fillColor=none;top=0;left=0;bottom=0;right=0;editable=1;overflow=hidden;" vertex="1" parent="CehHZMc9VXragpEMrMZA-511">
          <mxGeometry width="30" height="30" as="geometry" />
        </mxCell>
        <mxCell id="CehHZMc9VXragpEMrMZA-513" value="image : string : 必" style="shape=partialRectangle;connectable=0;fillColor=none;top=0;left=0;bottom=0;right=0;align=left;spacingLeft=6;overflow=hidden;" vertex="1" parent="CehHZMc9VXragpEMrMZA-511">
          <mxGeometry x="30" width="150" height="30" as="geometry" />
        </mxCell>
        <mxCell id="CehHZMc9VXragpEMrMZA-514" style="shape=partialRectangle;collapsible=0;dropTarget=0;pointerEvents=0;fillColor=none;top=0;left=0;bottom=0;right=0;points=[[0,0.5],[1,0.5]];portConstraint=eastwest;" vertex="1" parent="CehHZMc9VXragpEMrMZA-492">
          <mxGeometry y="180" width="180" height="30" as="geometry" />
        </mxCell>
        <mxCell id="CehHZMc9VXragpEMrMZA-515" style="shape=partialRectangle;connectable=0;fillColor=none;top=0;left=0;bottom=0;right=0;editable=1;overflow=hidden;" vertex="1" parent="CehHZMc9VXragpEMrMZA-514">
          <mxGeometry width="30" height="30" as="geometry" />
        </mxCell>
        <mxCell id="CehHZMc9VXragpEMrMZA-516" value="date : datetime : 必" style="shape=partialRectangle;connectable=0;fillColor=none;top=0;left=0;bottom=0;right=0;align=left;spacingLeft=6;overflow=hidden;" vertex="1" parent="CehHZMc9VXragpEMrMZA-514">
          <mxGeometry x="30" width="150" height="30" as="geometry" />
        </mxCell>
        <mxCell id="CehHZMc9VXragpEMrMZA-517" style="shape=partialRectangle;collapsible=0;dropTarget=0;pointerEvents=0;fillColor=none;top=0;left=0;bottom=0;right=0;points=[[0,0.5],[1,0.5]];portConstraint=eastwest;" vertex="1" parent="CehHZMc9VXragpEMrMZA-492">
          <mxGeometry y="210" width="180" height="30" as="geometry" />
        </mxCell>
        <mxCell id="CehHZMc9VXragpEMrMZA-518" style="shape=partialRectangle;connectable=0;fillColor=none;top=0;left=0;bottom=0;right=0;editable=1;overflow=hidden;" vertex="1" parent="CehHZMc9VXragpEMrMZA-517">
          <mxGeometry width="30" height="30" as="geometry" />
        </mxCell>
        <mxCell id="CehHZMc9VXragpEMrMZA-519" value="time : datetime : 必" style="shape=partialRectangle;connectable=0;fillColor=none;top=0;left=0;bottom=0;right=0;align=left;spacingLeft=6;overflow=hidden;" vertex="1" parent="CehHZMc9VXragpEMrMZA-517">
          <mxGeometry x="30" width="150" height="30" as="geometry" />
        </mxCell>
        <mxCell id="CehHZMc9VXragpEMrMZA-520" style="shape=partialRectangle;collapsible=0;dropTarget=0;pointerEvents=0;fillColor=none;top=0;left=0;bottom=0;right=0;points=[[0,0.5],[1,0.5]];portConstraint=eastwest;" vertex="1" parent="CehHZMc9VXragpEMrMZA-492">
          <mxGeometry y="240" width="180" height="30" as="geometry" />
        </mxCell>
        <mxCell id="CehHZMc9VXragpEMrMZA-521" style="shape=partialRectangle;connectable=0;fillColor=none;top=0;left=0;bottom=0;right=0;editable=1;overflow=hidden;" vertex="1" parent="CehHZMc9VXragpEMrMZA-520">
          <mxGeometry width="30" height="30" as="geometry" />
        </mxCell>
        <mxCell id="CehHZMc9VXragpEMrMZA-522" value="location : string : 必" style="shape=partialRectangle;connectable=0;fillColor=none;top=0;left=0;bottom=0;right=0;align=left;spacingLeft=6;overflow=hidden;" vertex="1" parent="CehHZMc9VXragpEMrMZA-520">
          <mxGeometry x="30" width="150" height="30" as="geometry" />
        </mxCell>
        <mxCell id="CehHZMc9VXragpEMrMZA-523" style="shape=partialRectangle;collapsible=0;dropTarget=0;pointerEvents=0;fillColor=none;top=0;left=0;bottom=0;right=0;points=[[0,0.5],[1,0.5]];portConstraint=eastwest;" vertex="1" parent="CehHZMc9VXragpEMrMZA-492">
          <mxGeometry y="270" width="180" height="30" as="geometry" />
        </mxCell>
        <mxCell id="CehHZMc9VXragpEMrMZA-524" style="shape=partialRectangle;connectable=0;fillColor=none;top=0;left=0;bottom=0;right=0;editable=1;overflow=hidden;" vertex="1" parent="CehHZMc9VXragpEMrMZA-523">
          <mxGeometry width="30" height="30" as="geometry" />
        </mxCell>
        <mxCell id="CehHZMc9VXragpEMrMZA-525" value="description : string : 必" style="shape=partialRectangle;connectable=0;fillColor=none;top=0;left=0;bottom=0;right=0;align=left;spacingLeft=6;overflow=hidden;" vertex="1" parent="CehHZMc9VXragpEMrMZA-523">
          <mxGeometry x="30" width="150" height="30" as="geometry" />
        </mxCell>
        <mxCell id="CehHZMc9VXragpEMrMZA-526" style="shape=partialRectangle;collapsible=0;dropTarget=0;pointerEvents=0;fillColor=none;top=0;left=0;bottom=0;right=0;points=[[0,0.5],[1,0.5]];portConstraint=eastwest;" vertex="1" parent="CehHZMc9VXragpEMrMZA-492">
          <mxGeometry y="300" width="180" height="30" as="geometry" />
        </mxCell>
        <mxCell id="CehHZMc9VXragpEMrMZA-527" style="shape=partialRectangle;connectable=0;fillColor=none;top=0;left=0;bottom=0;right=0;editable=1;overflow=hidden;" vertex="1" parent="CehHZMc9VXragpEMrMZA-526">
          <mxGeometry width="30" height="30" as="geometry" />
        </mxCell>
        <mxCell id="CehHZMc9VXragpEMrMZA-528" value="price : int : 必" style="shape=partialRectangle;connectable=0;fillColor=none;top=0;left=0;bottom=0;right=0;align=left;spacingLeft=6;overflow=hidden;" vertex="1" parent="CehHZMc9VXragpEMrMZA-526">
          <mxGeometry x="30" width="150" height="30" as="geometry" />
        </mxCell>
        <mxCell id="CehHZMc9VXragpEMrMZA-508" style="shape=partialRectangle;collapsible=0;dropTarget=0;pointerEvents=0;fillColor=none;top=0;left=0;bottom=0;right=0;points=[[0,0.5],[1,0.5]];portConstraint=eastwest;" vertex="1" parent="CehHZMc9VXragpEMrMZA-492">
          <mxGeometry y="330" width="180" height="30" as="geometry" />
        </mxCell>
        <mxCell id="CehHZMc9VXragpEMrMZA-509" style="shape=partialRectangle;connectable=0;fillColor=none;top=0;left=0;bottom=0;right=0;editable=1;overflow=hidden;" vertex="1" parent="CehHZMc9VXragpEMrMZA-508">
          <mxGeometry width="30" height="30" as="geometry" />
        </mxCell>
        <mxCell id="CehHZMc9VXragpEMrMZA-510" value="created_at : datetime : 必" style="shape=partialRectangle;connectable=0;fillColor=none;top=0;left=0;bottom=0;right=0;align=left;spacingLeft=6;overflow=hidden;" vertex="1" parent="CehHZMc9VXragpEMrMZA-508">
          <mxGeometry x="30" width="150" height="30" as="geometry" />
        </mxCell>
        <mxCell id="CehHZMc9VXragpEMrMZA-502" style="shape=partialRectangle;collapsible=0;dropTarget=0;pointerEvents=0;fillColor=none;top=0;left=0;bottom=0;right=0;points=[[0,0.5],[1,0.5]];portConstraint=eastwest;" vertex="1" parent="CehHZMc9VXragpEMrMZA-492">
          <mxGeometry y="360" width="180" height="30" as="geometry" />
        </mxCell>
        <mxCell id="CehHZMc9VXragpEMrMZA-503" style="shape=partialRectangle;connectable=0;fillColor=none;top=0;left=0;bottom=0;right=0;editable=1;overflow=hidden;" vertex="1" parent="CehHZMc9VXragpEMrMZA-502">
          <mxGeometry width="30" height="30" as="geometry" />
        </mxCell>
        <mxCell id="CehHZMc9VXragpEMrMZA-504" value="updated_at : datetime : 必" style="shape=partialRectangle;connectable=0;fillColor=none;top=0;left=0;bottom=0;right=0;align=left;spacingLeft=6;overflow=hidden;" vertex="1" parent="CehHZMc9VXragpEMrMZA-502">
          <mxGeometry x="30" width="150" height="30" as="geometry" />
        </mxCell>
        <mxCell id="CehHZMc9VXragpEMrMZA-541" value="" style="edgeStyle=entityRelationEdgeStyle;fontSize=12;html=1;endArrow=ERzeroToOne;startArrow=ERone;exitX=1;exitY=0.5;exitDx=0;exitDy=0;entryX=0;entryY=0.5;entryDx=0;entryDy=0;startFill=0;endFill=1;" edge="1" parent="1" source="CehHZMc9VXragpEMrMZA-474" target="CehHZMc9VXragpEMrMZA-493">
          <mxGeometry width="100" height="100" relative="1" as="geometry">
            <mxPoint x="660" y="310" as="sourcePoint" />
            <mxPoint x="760" y="210" as="targetPoint" />
          </mxGeometry>
        </mxCell>
        <mxCell id="CehHZMc9VXragpEMrMZA-542" value="" style="edgeStyle=entityRelationEdgeStyle;fontSize=12;html=1;endArrow=ERzeroToOne;startArrow=ERone;exitX=1;exitY=0.5;exitDx=0;exitDy=0;entryX=0;entryY=0.5;entryDx=0;entryDy=0;startFill=0;endFill=1;" edge="1" parent="1" source="CehHZMc9VXragpEMrMZA-477" target="CehHZMc9VXragpEMrMZA-246">
          <mxGeometry width="100" height="100" relative="1" as="geometry">
            <mxPoint x="710" y="75" as="sourcePoint" />
            <mxPoint x="801" y="75" as="targetPoint" />
          </mxGeometry>
        </mxCell>
      </root>
    </mxGraphModel>
  </diagram>
</mxfile>
